<?xml version="1.0" encoding="utf-8"?>
<!-- Generator: Adobe Illustrator 23.1.0, SVG Export Plug-In . SVG Version: 6.00 Build 0)  -->
<svg version="1.1" id="Layer_1" xmlns="http://www.w3.org/2000/svg" xmlns:xlink="http://www.w3.org/1999/xlink" x="0px" y="0px"
	 viewBox="0 0 24 24" style="enable-background:new 0 0 24 24;" xml:space="preserve">
<style type="text/css">
	.st0{fill:none;}
	.st1{fill:#FFFFFF;}
</style>
<path class="st0" d="M0,0h24v24H0V0z"/>
<path class="st1" d="M2,4v12c0,1.1,0.9,2,2,2h14l4,4V4c0-1.1-0.9-2-2-2H4C2.9,2,2,2.9,2,4z M4,4h16v14l-2-2H4V4z M17,11h-2V9h2V11z
	 M13,11h-2V9h2V11z M9,11H7V9h2V11z"/>
</svg>
